<?xml version="1.0" encoding="UTF-8" standalone="no"?>
<!-- Created with Inkscape (http://www.inkscape.org/) -->

<svg
   width="1500"
   height="600"
   viewBox="0 0 500 200"
   version="1.1"
   id="svg1"
   xml:space="preserve"
   inkscape:export-filename="Cover_test_objectifs_inkscape.svg"
   inkscape:export-xdpi="150"
   inkscape:export-ydpi="150"
   sodipodi:docname="COVER_Espace_Etapes.svg"
   inkscape:version="1.3 (0e150ed6c4, 2023-07-21)"
   xmlns:inkscape="http://www.inkscape.org/namespaces/inkscape"
   xmlns:sodipodi="http://sodipodi.sourceforge.net/DTD/sodipodi-0.dtd"
   xmlns="http://www.w3.org/2000/svg"
   xmlns:svg="http://www.w3.org/2000/svg"><sodipodi:namedview
     id="namedview1"
     pagecolor="#ffffff"
     bordercolor="#000000"
     borderopacity="0.25"
     inkscape:showpageshadow="2"
     inkscape:pageopacity="0.0"
     inkscape:pagecheckerboard="0"
     inkscape:deskcolor="#d1d1d1"
     inkscape:document-units="mm"
     inkscape:zoom="0.74742564"
     inkscape:cx="764.62456"
     inkscape:cy="56.861844"
     inkscape:window-width="1920"
     inkscape:window-height="1017"
     inkscape:window-x="1912"
     inkscape:window-y="-8"
     inkscape:window-maximized="1"
     inkscape:current-layer="layer1"
     showguides="false" /><defs
     id="defs1" /><g
     inkscape:label="Layer 1"
     inkscape:groupmode="layer"
     id="layer1"><rect
       style="opacity:1;fill:#191919;fill-opacity:1;stroke:#f2f9f9;stroke-width:0.0666667;paint-order:markers stroke fill"
       id="rect1"
       width="500"
       height="200"
       x="0"
       y="0"
       sodipodi:insensitive="true" /><path
       d="m 443.20093,159.63843 -3.0767,-31.54621 17.5835,-26.74069 c 0.93282,-1.419321 1.11967,-3.202405 0.49953,-4.784342 -0.61973,-1.581838 -1.96837,-2.76422 -3.61712,-3.171594 L 402.28867,80.472865 c -3.2283,-0.797655 -2.63197,-2.545677 -2.63197,-2.545677 2.75785,-11.161708 -2.88498,-17.840211 -10.80341,-19.79671 L 345.49066,47.416371 c 1.36131,-1.270089 2.36252,-2.924511 2.82678,-4.803474 1.2954,-5.242811 -1.91602,-10.561983 -7.15883,-11.857385 l -6.06901,-1.499539 c -5.24281,-1.295402 -10.56198,1.916018 -11.85738,7.158828 -0.81375,3.293447 0.14742,6.745968 2.46231,9.146758 l -35.55017,143.880311 17.38173,-2.98791 14.96661,-58.43435 46.73295,11.54685 c 0.77764,0.19214 2.13151,0.77479 1.58948,2.96853 l -0.0614,0.24843 c -0.82815,3.35171 1.21775,6.7404 4.56946,7.56854 0.006,0.002 0.0111,0.002 0.0176,0.003 0.006,0.001 0.0107,0.004 0.0164,0.005 l 61.40942,15.17314 0.009,0.002 c 2.8059,0.69328 5.64219,-1.01945 6.33547,-3.82536 0.17245,-0.69965 0.19609,-1.40172 0.0903,-2.07181 z"
       id="path1-0"
       style="fill:#1e1e1e;fill-opacity:1;stroke-width:0.416768"
       sodipodi:nodetypes="ccccsscscssssccccsssssscscc" /><path
       style="display:inline;fill:#2c71bd;fill-opacity:1;stroke-width:0.738698;stroke:none"
       d="m 479.66666,88.195231 c -53.40296,-0.567096 -104.08072,-3.343068 -165.5,-9.065596 -6.6,-0.614931 -23.32501,-2.211141 -37.16667,-3.547129 C 190.22609,67.20715 159.38939,65.999302 113.49998,69.178365 77.376421,71.680881 29.269419,78.791375 0.5833025,85.868103 L -2.5e-5,86.012011 V 0 H 500 v 88.413195 l -3.08334,-0.03379 c -1.69583,-0.01861 -9.45834,-0.101463 -17.25,-0.184202 z"
       id="path1"
       sodipodi:nodetypes="sssssccccsss" /><text
       xml:space="preserve"
       style="font-weight:bold;font-stretch:condensed;font-size:26.6667px;line-height:0.8;font-family:'Agency FB';-inkscape-font-specification:'Agency FB Bold Condensed';text-align:start;letter-spacing:0.666667px;word-spacing:0px;text-anchor:start;fill:#d3d4d4;fill-opacity:1;stroke:#f2f9f9;stroke-width:0.0666667;paint-order:markers stroke fill"
       x="175.10538"
       y="115.9961"
       id="text1"><tspan
         sodipodi:role="line"
         style="font-style:normal;font-variant:normal;font-weight:bold;font-stretch:normal;font-size:26.6667px;line-height:0.8;font-family:'Segoe UI';-inkscape-font-specification:'Segoe UI Bold';text-align:start;letter-spacing:0.666667px;word-spacing:0px;text-anchor:start;fill:#d3d4d4;fill-opacity:1;stroke-width:0.0666667"
         x="175.10538"
         y="115.9961"
         id="tspan3"><tspan
           dx="0"
           id="tspan4"
           style="font-style:normal;font-variant:normal;font-weight:bold;font-stretch:normal;font-size:26.6667px;line-height:0.8;font-family:'Segoe UI';-inkscape-font-specification:'Segoe UI Bold';text-align:start;letter-spacing:0.666667px;word-spacing:0px;text-anchor:start;fill:#d3d4d4;fill-opacity:1;stroke-width:0.0666667">LES ETAPES</tspan></tspan></text><text
       xml:space="preserve"
       style="font-style:italic;font-variant:normal;font-weight:bold;font-stretch:normal;font-size:12px;line-height:0.8;font-family:'Segoe UI';-inkscape-font-specification:'Segoe UI Bold Italic';text-align:start;letter-spacing:0.666667px;word-spacing:0px;text-anchor:start;fill:#143a4e;fill-opacity:1;stroke:none;stroke-width:0.0666667;paint-order:markers stroke fill"
       x="176.55707"
       y="96.165222"
       id="text2"><tspan
         sodipodi:role="line"
         id="tspan1"
         style="font-style:italic;font-variant:normal;font-weight:bold;font-stretch:normal;font-size:12px;font-family:'Segoe UI';-inkscape-font-specification:'Segoe UI Bold Italic';text-align:start;text-anchor:start;fill:#143a4e;fill-opacity:1;stroke:none;stroke-width:0.0666667"
         x="176.55707"
         y="96.165222">ORGANISER</tspan></text><path
       id="path4"
       clip-path="none"
       style="display:inline;fill:#72a7de;fill-opacity:1;stroke-width:0.738698;stroke:none"
       d="M 333.12826 28.976562 C 328.58015 28.795109 324.3659 31.82726 323.23242 36.414714 C 322.41867 39.708157 323.37977 43.161061 325.69466 45.561849 L 317.33464 79.397786 C 357.47102 83.091458 393.10353 85.456129 427.98828 86.822917 L 402.28841 80.472656 C 399.06011 79.675004 399.6569 77.927083 399.6569 77.927083 C 402.41477 66.765387 396.77194 60.086706 388.85352 58.130208 L 345.49089 47.416667 C 346.85218 46.146581 347.85345 44.491591 348.31771 42.61263 C 349.61311 37.369825 346.40168 32.050609 341.15885 30.755208 L 335.08984 29.255859 C 334.43449 29.093934 333.77798 29.002484 333.12826 28.976562 z " /><rect
       style="fill:#d3d4d4;fill-opacity:1;stroke-width:0.0650956;paint-order:markers stroke fill"
       id="rect5"
       width="1.3333334"
       height="1.3333334"
       x="0"
       y="198.66667" /><rect
       style="fill:#1e1e1e;fill-opacity:1;stroke-width:0.0650956;paint-order:markers stroke fill"
       id="rect5-9"
       width="1.3333334"
       height="1.3333334"
       x="1.3333334"
       y="198.66667" /><rect
       style="fill:#72a7de;fill-opacity:1;stroke-width:0.0650956;paint-order:markers stroke fill"
       id="rect5-9-3"
       width="1.3333334"
       height="1.3333334"
       x="2.666667"
       y="198.66667" /></g></svg>
