<?xml version="1.0" encoding="UTF-8" standalone="no"?>
<!-- Created with Inkscape (http://www.inkscape.org/) -->

<svg
   width="1500"
   height="600"
   viewBox="0 0 500 200"
   version="1.1"
   id="svg1"
   xml:space="preserve"
   inkscape:export-filename="Cover_test_objectifs_inkscape.svg"
   inkscape:export-xdpi="150"
   inkscape:export-ydpi="150"
   sodipodi:docname="COVER_Espace_Etapes.svg"
   inkscape:version="1.3 (0e150ed6c4, 2023-07-21)"
   xmlns:inkscape="http://www.inkscape.org/namespaces/inkscape"
   xmlns:sodipodi="http://sodipodi.sourceforge.net/DTD/sodipodi-0.dtd"
   xmlns="http://www.w3.org/2000/svg"
   xmlns:svg="http://www.w3.org/2000/svg"><sodipodi:namedview
     id="namedview1"
     pagecolor="#ffffff"
     bordercolor="#000000"
     borderopacity="0.25"
     inkscape:showpageshadow="2"
     inkscape:pageopacity="0.0"
     inkscape:pagecheckerboard="0"
     inkscape:deskcolor="#d1d1d1"
     inkscape:document-units="mm"
     inkscape:zoom="0.26425487"
     inkscape:cx="679.26846"
     inkscape:cy="543.03635"
     inkscape:window-width="1920"
     inkscape:window-height="1017"
     inkscape:window-x="1912"
     inkscape:window-y="-8"
     inkscape:window-maximized="1"
     inkscape:current-layer="layer1"
     showguides="false" /><defs
     id="defs1" /><g
     inkscape:label="Layer 1"
     inkscape:groupmode="layer"
     id="layer1"><rect
       style="opacity:1;fill:#191919;fill-opacity:1;stroke:#f2f9f9;stroke-width:0.0666667;paint-order:markers stroke fill"
       id="rect1"
       width="500"
       height="200"
       x="0"
       y="0"
       sodipodi:insensitive="true" /><path
       d="M 374.195,241.486 348.872,169.774 374.44,97.365 c 1.356,-3.843 0.765,-8.104 -1.59,-11.432 -2.354,-3.328 -6.176,-5.306 -10.251,-5.306 l -129.267,0 c -7.979,0 -7.596,-4.415 -7.596,-4.415 0,-27.587 -16.988,-39.896 -36.559,-39.896 l -107.174,0 c 2.44,-3.742 3.82,-8.172 3.82,-12.816 C 85.823,10.542 75.281,0 62.323,0 h -15 c -12.958,0 -23.5,10.542 -23.5,23.5 0,8.14 4.226,15.629 11,19.889 L 34.823,399 73.59178,382.03609 74.823,237.307 l 115.504,0 c 1.922,0 5.411,0.578 5.411,6 l 0,0.614 c 0,8.284 6.716,15 15,15 0.015,0 0.027,-0.002 0.043,-0.002 0.014,0 0.027,0.002 0.041,0.002 l 151.778,0 h 0.021 c 6.935,0 12.556,-5.622 12.556,-12.557 -0.001,-1.729 -0.35,-3.378 -0.982,-4.878 z"
       id="path1-0"
       style="fill:#1e1e1e;fill-opacity:1"
       transform="matrix(0.45196397,0.11167197,-0.11167197,0.45196397,309.10464,14.61221)"
       sodipodi:nodetypes="ccccsscscssssccccsssssscscc" /><path
       style="display:inline;fill:#2c71bd;fill-opacity:1;stroke-width:0.738698;stroke:none"
       d="m 479.66666,88.195231 c -53.40296,-0.567096 -104.08072,-3.343068 -165.5,-9.065596 -6.6,-0.614931 -23.32501,-2.211141 -37.16667,-3.547129 C 190.22609,67.20715 159.38939,65.999302 113.49998,69.178365 77.376421,71.680881 29.269419,78.791375 0.5833025,85.868103 L -2.5e-5,86.012011 V 0 H 500 v 88.413195 l -3.08334,-0.03379 c -1.69583,-0.01861 -9.45834,-0.101463 -17.25,-0.184202 z"
       id="path1"
       sodipodi:nodetypes="sssssccccsss" /><text
       xml:space="preserve"
       style="font-weight:bold;font-stretch:condensed;font-size:26.6667px;line-height:0.8;font-family:'Agency FB';-inkscape-font-specification:'Agency FB Bold Condensed';text-align:start;letter-spacing:0.666667px;word-spacing:0px;text-anchor:start;fill:#d3d4d4;fill-opacity:1;stroke:#f2f9f9;stroke-width:0.0666667;paint-order:markers stroke fill"
       x="175.10538"
       y="115.9961"
       id="text1"><tspan
         sodipodi:role="line"
         style="font-style:normal;font-variant:normal;font-weight:bold;font-stretch:normal;font-size:26.6667px;line-height:0.8;font-family:'Segoe UI';-inkscape-font-specification:'Segoe UI Bold';text-align:start;letter-spacing:0.666667px;word-spacing:0px;text-anchor:start;fill:#d3d4d4;fill-opacity:1;stroke-width:0.0666667"
         x="175.10538"
         y="115.9961"
         id="tspan3"><tspan
           dx="0"
           id="tspan4"
           style="font-style:normal;font-variant:normal;font-weight:bold;font-stretch:normal;font-size:26.6667px;line-height:0.8;font-family:'Segoe UI';-inkscape-font-specification:'Segoe UI Bold';text-align:start;letter-spacing:0.666667px;word-spacing:0px;text-anchor:start;fill:#d3d4d4;fill-opacity:1;stroke-width:0.0666667">LES ETAPES</tspan></tspan></text><text
       xml:space="preserve"
       style="font-style:italic;font-variant:normal;font-weight:bold;font-stretch:normal;font-size:12px;line-height:0.8;font-family:'Segoe UI';-inkscape-font-specification:'Segoe UI Bold Italic';text-align:start;letter-spacing:0.666667px;word-spacing:0px;text-anchor:start;fill:#143a4e;fill-opacity:1;stroke:none;stroke-width:0.0666667;paint-order:markers stroke fill"
       x="176.55707"
       y="96.165222"
       id="text2"><tspan
         sodipodi:role="line"
         id="tspan1"
         style="font-style:italic;font-variant:normal;font-weight:bold;font-stretch:normal;font-size:12px;font-family:'Segoe UI';-inkscape-font-specification:'Segoe UI Bold Italic';text-align:start;text-anchor:start;fill:#143a4e;fill-opacity:1;stroke:none;stroke-width:0.0666667"
         x="176.55707"
         y="96.165222">ORGANISER</tspan></text><path
       id="path2"
       style="fill:#72a7de;fill-opacity:1"
       d="M 42.592282 0.4780499 C 31.893641 2.6730125 23.822891 12.162132 23.822891 23.500371 C 23.822891 31.640363 28.04906 39.129213 34.823053 43.389209 L 34.822952 133.25743 C 36.928786 132.94262 42.20419 132.16708 43.796912 131.92746 C 148.44045 116.1842 237.83578 99.899085 326.46725 80.626592 L 233.33216 80.627008 C 225.35317 80.627008 225.73609 76.211874 225.73609 76.211874 C 225.73609 48.624901 208.74762 36.316511 189.17664 36.316511 L 82.002395 36.315646 C 84.442392 32.57365 85.823747 28.144522 85.823747 23.500527 C 85.823747 10.54254 75.280622 0.00080588212 62.322635 0.00080588212 L 47.322948 0.00061643122 C 45.703199 0.00061643122 44.12066 0.1644838 42.592282 0.4780499 z "
       transform="matrix(0.45196397,0.11167197,-0.11167197,0.45196397,309.10464,14.61221)" /></g></svg>
